PathFileType	4	(X/Y/Z)	c:\Git\powerlifing_model_clean\simulations\HC835B\Session1\HC835B_OGR_0005\marker_experimental.trc
DataRate	CameraRate	NumFrames	NumMarkers	Units	OrigDataRate	OrigDataStartFrame	OrigNumFrames
240.000000	240.000000	4	38	mm	240.000000	54	218
Frame#	Time	RPSI			LPSI			RASI			LASI			RTH1			RTH2			RTH3			RTH4			RSK1			RSK2			RSK3			RSK4			RCAL1			RCAL2			RCAL3			RST			RPT			RTN			RFMB			RSMB			RVMB			RFMH			RSMH			RVMH			RPM			LTH1			LTH2			LTH3			LTH4			LSK1			LSK2			LSK3			LSK4			LCAL1			LCAL2			LCAL3			LFMH			LVMH			
		X1	Y1	Z1	X2	Y2	Z2	X3	Y3	Z3	X4	Y4	Z4	X5	Y5	Z5	X6	Y6	Z6	X7	Y7	Z7	X8	Y8	Z8	X9	Y9	Z9	X10	Y10	Z10	X11	Y11	Z11	X12	Y12	Z12	X13	Y13	Z13	X14	Y14	Z14	X15	Y15	Z15	X16	Y16	Z16	X17	Y17	Z17	X18	Y18	Z18	X19	Y19	Z19	X20	Y20	Z20	X21	Y21	Z21	X22	Y22	Z22	X23	Y23	Z23	X24	Y24	Z24	X25	Y25	Z25	X26	Y26	Z26	X27	Y27	Z27	X28	Y28	Z28	X29	Y29	Z29	X30	Y30	Z30	X31	Y31	Z31	X32	Y32	Z32	X33	Y33	Z33	X34	Y34	Z34	X35	Y35	Z35	X36	Y36	Z36	X37	Y37	Z37	X38	Y38	Z38	

55	0.225	502.845672607422	1131.285888671875	-430.689666748047	393.5841064453126	1126.722534179688	-432.9220275878907	568.1171264648439	1048.75048828125	-630.5045166015626	321.4246215820313	1049.658935546875	-629.0163574218751	614.7963256835939	783.097106933594	-519.2145996093751	607.4911499023439	765.3247680664064	-576.9144287109376	597.4021606445314	701.0252685546876	-532.7265014648439	579.1062011718751	685.3052368164064	-585.9603271484376	519.6431884765626	313.4015808105469	-331.7644653320313	514.7601928710939	274.2450866699219	-379.4374389648438	508.6265258789064	256.6080627441407	-321.5348510742188	493.217742919922	221.1194763183594	-367.6550598144532	439.5745849609376	135.030746459961	-197.9558715820313	403.4902954101564	101.6766815185547	-199.7776641845704	466.9827270507814	96.02109527587893	-191.2870635986328	394.1419982910157	103.3991851806641	-269.1773376464844	495.2884521484376	93.16302490234376	-249.9390411376954	409.6811523437501	107.164779663086	-327.6477966308594	414.526336669922	83.7180633544922	-354.7040100097657	465.5091857910157	100.0834350585938	-364.5163879394532	505.1289672851564	57.9921340942383	-286.2822265625001	412.5980224609376	47.51886367797852	-402.6292419433595	469.0813293457032	52.5182571411133	-414.1156616210939	523.8231811523439	37.77187728881837	-358.1423645019532	459.169647216797	38.71139526367188	-470.276824951172	234.8768920898438	795.9552001953127	-617.7828369140626	239.9977416992188	807.0093994140627	-677.3410644531251	232.2041168212891	727.0239868164064	-667.4930419921876	252.6834716796876	736.5572509765626	-724.5731811523439	282.0645751953126	544.4618530273439	-429.1072387695314	276.5124511718751	490.770965576172	-426.1390380859376	287.6615295410157	512.3067626953126	-382.7708435058594	296.6776123046876	457.7702026367189	-383.2897644042969	357.3198547363282	526.5925903320314	-231.1679229736329	331.3751831054688	515.4216918945314	-192.4709625244141	390.0910644531251	511.0580444335939	-199.4459533691407	384.4387512207032	301.9663696289063	-268.0686950683594	285.5841064453126	329.3988647460938	-220.8915710449219	
56	0.2291666666666667	503.7508544921876	1134.404052734375	-446.014617919922	394.1701660156251	1129.955688476563	-447.6146850585939	567.6779174804689	1051.508422851563	-645.2839355468751	321.9407653808594	1052.730712890625	-643.8335571289064	614.4389038085939	786.1757812500002	-529.0915527343751	606.9095458984376	767.2625122070314	-586.4818725585939	597.0692749023439	703.8643188476564	-541.1292724609376	578.4772949218751	687.1917724609376	-593.9689941406251	520.8500366210939	317.3913269042969	-335.3023986816407	515.9539794921876	278.0692749023438	-382.8831176757813	509.961151123047	260.7016296386719	-324.8851013183594	494.6879882812501	224.9257812500001	-370.8349304199219	441.4761962890626	140.3123016357422	-200.8932342529297	404.9867248535157	107.4037475585938	-202.1253356933594	468.3117065429689	101.0768966674805	-193.5004272460938	395.787811279297	107.6643829345703	-271.3866271972657	496.7621459960939	96.56665802001956	-251.988021850586	411.332489013672	109.6922988891602	-329.5347900390626	415.746551513672	85.75791168212892	-356.6107177734376	466.8264770507814	101.1336059570313	-366.6187438964844	505.8250122070314	60.1582717895508	-287.6664123535157	412.806121826172	47.69720840454102	-402.743377685547	469.386444091797	52.14752578735353	-414.8058471679689	524.1278076171876	37.95501708984376	-358.4671325683594	459.1173400878907	38.65871047973634	-470.2535095214845	235.459945678711	799.9608154296877	-634.8854370117189	240.6164245605469	811.9787597656252	-694.2337036132814	233.1547546386719	731.7516479492189	-685.6256103515626	253.666976928711	742.4553833007814	-742.4086303710939	282.6843872070313	540.7890625000001	-449.8086242675782	277.4020690917969	486.9769287109376	-448.5746459960939	288.2721252441407	507.1035461425782	-404.4494628906251	297.7557067871094	452.5778808593751	-406.9060058593751	357.6198425292969	516.8530273437501	-252.0117492675782	331.5085144042969	504.3101806640626	-213.8722534179688	389.9720458984376	500.2717895507814	-220.8173828125001	384.7893371582032	293.6058654785157	-297.3526611328126	285.9421386718751	319.4266662597657	-249.1960601806641	
57	0.2333333333333333	504.5924072265626	1137.604736328125	-461.5096435546876	394.6399841308595	1133.286376953125	-462.3497924804689	567.0327148437501	1054.329223632813	-659.9899902343751	322.3038635253907	1055.841918945313	-658.8365478515626	614.1657104492189	789.4498291015627	-539.3355102539064	606.2744140625001	769.5352172851565	-596.3619384765626	596.9082031250001	707.1592407226564	-549.8883056640626	577.8344116210939	689.4047241210939	-602.4149780273439	522.0493774414064	321.7086181640626	-339.2267150878907	517.3229980468751	282.1274414062501	-386.6286926269532	511.309539794922	264.9846191406251	-328.5196838378907	496.3023071289064	228.8688964843751	-374.3270568847657	443.3448486328126	145.8974914550782	-204.3331298828126	406.4369506835939	113.3943405151367	-204.7704620361329	469.6836853027345	106.4430541992188	-196.0579833984376	397.5140991210939	112.0739974975586	-274.0824279785157	497.3187561035157	100.106918334961	-254.1233215332032	412.9273986816407	112.7105560302735	-332.3125305175782	416.8506469726564	87.92296600341798	-358.4825439453126	467.9718017578126	101.9702453613282	-369.0241088867188	506.3697509765626	62.40442276000978	-289.1699523925782	412.986053466797	47.96282577514649	-402.8775329589845	469.6885681152345	51.85941314697267	-415.584686279297	524.4390869140626	38.14583206176759	-358.8319702148438	459.1900634765626	38.67627716064454	-470.2905273437501	235.9465484619141	804.1101684570315	-651.9829101562501	241.2312011718751	816.830505371094	-711.1581420898439	234.2240295410157	736.2030639648439	-703.7988891601564	255.0343780517579	747.4626464843751	-760.4373779296876	283.4059448242188	536.8414916992189	-470.5568847656251	278.3847351074219	483.096405029297	-471.0487060546876	288.4135437011719	502.2728576660157	-425.742645263672	299.0664367675782	447.113983154297	-430.809051513672	357.8782348632813	506.7688598632814	-273.0014038085938	331.5458068847657	492.7649230957032	-235.5482025146485	389.9330139160157	488.913299560547	-242.3126373291016	385.2297973632814	285.4944458007813	-327.1482849121094	286.2514038085938	309.3427124023438	-278.0826416015626	
58	0.2375	505.2781372070314	1140.809692382813	-477.0556945800782	395.0437622070314	1136.623046875	-477.1539916992189	566.3925170898439	1057.1796875	-674.6401977539064	322.6845703125001	1058.757446289063	-673.8927612304689	613.9804077148439	792.9047851562502	-549.9071655273439	605.7149047851564	772.1199340820315	-606.6331176757814	596.7823486328126	710.3460083007814	-559.1926269531251	577.2559814453126	691.9836425781251	-611.2352905273439	523.2406616210939	326.1846923828126	-343.3694458007813	518.8406982421876	286.3027648925782	-390.6843872070314	512.7954711914064	269.5076293945313	-332.4790649414063	498.1924743652345	233.1497192382813	-378.1345825195313	445.2623291015626	151.7199249267578	-208.2077789306641	407.7578125000001	119.7100067138672	-207.9075164794922	471.055389404297	112.1346511840821	-199.0200958251954	399.3301086425782	116.6441192626953	-277.1550598144532	498.7547607421876	103.974838256836	-256.7928466796876	414.7788391113282	115.6408309936524	-335.1976013183594	417.991912841797	89.94911193847658	-360.6034851074219	469.9210815429689	103.4645538330078	-372.4742431640626	507.1452941894532	65.01930999755861	-290.9017639160157	413.2102661132814	48.19218063354494	-403.1023864746095	470.0297851562501	51.61353302001955	-416.4358825683595	524.7260131835939	38.3999366760254	-359.2436828613282	459.177947998047	38.67522048950196	-470.367645263672	236.4102172851563	808.2624511718752	-669.2403564453126	241.7271728515626	821.586853027344	-728.1690673828126	235.1563720703126	740.9716796875001	-721.6852416992189	256.0983276367188	753.0389404296876	-778.1795043945315	283.9630737304688	532.6654052734376	-491.3481750488282	278.5191040039063	478.8636169433595	-493.4421997070314	289.0759887695313	496.7312622070314	-447.5304565429689	299.4975585937501	441.6407470703126	-454.662567138672	358.1651306152344	496.317108154297	-294.2762756347657	331.5894165039063	480.9520874023439	-257.4549865722657	390.0972595214845	477.4373474121095	-264.0676574707032	386.5632324218751	277.1461181640626	-356.4884033203126	286.7334899902344	299.2096252441407	-307.1703491210938	
